<?xml version="1.0" encoding="UTF-8"?>
<svg width="20px" height="20px" viewBox="0 0 20 20" version="1.1" xmlns="http://www.w3.org/2000/svg" xmlns:xlink="http://www.w3.org/1999/xlink">
    <title>icon-facebook</title>
    <g id="icon-facebook" stroke="none" stroke-width="1" fill="none" fill-rule="evenodd">
        <path d="M17.1173333,2 L2.88266667,2 C2.39533333,2 2,2.39533333 2,2.88266667 L2,17.1173333 C2,17.6053333 2.39533333,18 2.88266667,18 L10.5453333,18 L10.5453333,11.804 L8.45933333,11.804 L8.45933333,9.39 L10.5453333,9.39 L10.5453333,7.60666667 C10.5453333,5.54066667 11.808,4.41666667 13.6513333,4.41666667 C14.5346667,4.41666667 15.294,4.48133333 15.5153333,4.51066667 L15.5153333,6.67066667 L14.2346667,6.67066667 C13.2346667,6.67066667 13.04,7.15133333 13.04,7.85133333 L13.04,9.392 L15.4293333,9.392 L15.1193333,11.812 L13.04,11.812 L13.04,18 L17.1166667,18 C17.6053333,18 18,17.6053333 18,17.1173333 L18,2.88266667 C18,2.39533333 17.6053333,2 17.1173333,2" id="ic-facebook" fill="#D8D8D8" fill-rule="nonzero"></path>
    </g>
</svg>