<?xml version="1.0" encoding="UTF-8"?>
<svg width="20px" height="20px" viewBox="0 0 20 20" version="1.1" xmlns="http://www.w3.org/2000/svg" xmlns:xlink="http://www.w3.org/1999/xlink">
    <title>icon-linkedin</title>
    <g id="icon-linkedin" stroke="none" stroke-width="1" fill="none" fill-rule="evenodd">
        <path d="M18,11.3736492 L18,17.2891446 L14.5706633,17.2891446 L14.5706633,11.769897 C14.5706633,10.3834016 14.0746716,9.43714854 12.833353,9.43714854 C11.8859095,9.43714854 11.3219173,10.074994 11.0739214,10.6916605 C10.9834525,10.9121785 10.9599921,11.219247 10.9599921,11.5279026 L10.9599921,17.2891446 L7.52951461,17.2891446 C7.52951461,17.2891446 7.57584024,7.94143577 7.52951461,6.97291265 L10.9598433,6.97291265 L10.9598433,8.43509638 C10.9528498,8.44615699 10.9437235,8.4579616 10.9371764,8.46842702 L10.9598433,8.46842702 L10.9598433,8.43509638 C11.4155109,7.73336723 12.2294334,6.73052147 14.0510624,6.73052147 C16.3082217,6.73052147 18,8.2049562 18,11.3736492 Z M3.94116298,2 C2.76764646,2 2,2.76977922 2,3.78209842 C2,4.77229638 2.74532683,5.56533762 3.89563093,5.56533762 L3.91849615,5.56533762 C5.11487789,5.56533762 5.85886554,4.77249478 5.85886554,3.78209842 C5.83639712,2.76977922 5.11487789,2 3.94116298,2 Z M2.20380302,17.2891446 L5.63294129,17.2891446 L5.63294129,6.97291265 L2.20380302,6.97291265 L2.20380302,17.2891446 Z" id="ic-linkedin" fill="#D8D8D8"></path>
    </g>
</svg>