<?xml version="1.0" encoding="UTF-8"?>
<svg width="20px" height="20px" viewBox="0 0 20 20" version="1.1" xmlns="http://www.w3.org/2000/svg" xmlns:xlink="http://www.w3.org/1999/xlink">
    <title>icon-twitter</title>
    <g id="icon-twitter" stroke="none" stroke-width="1" fill="none" fill-rule="evenodd">
        <path d="M19,4.72992157 C18.337451,5.02345098 17.6266667,5.22258824 16.8797647,5.31141176 C17.6423137,4.85478431 18.2261176,4.13035294 18.5027451,3.26992157 C17.7875294,3.69286275 16.9978431,3.99984314 16.156549,4.16635294 C15.4827059,3.44760784 14.5245098,3 13.4615686,3 C11.4223529,3 9.76882353,4.65333333 9.76882353,6.6914902 C9.76882353,6.98054902 9.8014902,7.26286275 9.86443137,7.53294118 C6.79596078,7.37866667 4.07521569,5.90870588 2.25411765,3.67478431 C1.93580392,4.21921569 1.7547451,4.85356863 1.7547451,5.53078431 C1.7547451,6.81188235 2.40717647,7.94223529 3.39690196,8.60356863 C2.79180392,8.58333333 2.22258824,8.41698039 1.72443137,8.14015686 L1.72443137,8.18627451 C1.72443137,9.9747451 2.99768627,11.4673725 4.68596078,11.8069804 C4.37666667,11.8903137 4.05039216,11.9364314 3.71294118,11.9364314 C3.47458824,11.9364314 3.24403922,11.9128235 3.01792157,11.8678039 C3.48803922,13.3356471 4.8512549,14.4030196 6.46647059,14.4322745 C5.20329412,15.4221961 3.61058824,16.0104314 1.88066667,16.0104314 C1.58270588,16.0104314 1.28905882,15.9923529 1,15.9597255 C2.63435294,17.0091765 4.57458824,17.6211765 6.65992157,17.6211765 C13.4525098,17.6211765 17.165451,11.9949412 17.165451,7.1154902 L17.1531765,6.63756863 C17.8785098,6.12011765 18.5062745,5.46996078 19,4.72992157 Z" id="ic-twitter" fill="#D8D8D8"></path>
    </g>
</svg>